<mxfile host="app.diagrams.net" modified="2022-05-26T13:48:25.739Z" agent="5.0 (Macintosh; Intel Mac OS X 10_15_7) AppleWebKit/537.36 (KHTML, like Gecko) Chrome/101.0.4951.54 Safari/537.36" etag="Fcfprbv-vOxTuVw5Ig6O" version="16.2.4" type="github">
  <diagram id="b10DI2cHERtV3Pf1D0Sj" name="Page-1">
    <mxGraphModel dx="823" dy="537" grid="0" gridSize="10" guides="1" tooltips="1" connect="1" arrows="1" fold="1" page="1" pageScale="1" pageWidth="827" pageHeight="1169" background="none" math="0" shadow="0">
      <root>
        <mxCell id="0" />
        <mxCell id="1" parent="0" />
        <mxCell id="UgHOOY4JTyCKd-UOdERp-7" value="" style="endArrow=none;html=1;rounded=0;" edge="1" parent="1">
          <mxGeometry width="50" height="50" relative="1" as="geometry">
            <mxPoint x="200" y="360" as="sourcePoint" />
            <mxPoint x="600" y="360" as="targetPoint" />
          </mxGeometry>
        </mxCell>
        <mxCell id="UgHOOY4JTyCKd-UOdERp-8" value="Student Semester 1 timeline" style="text;html=1;align=center;verticalAlign=middle;resizable=0;points=[];autosize=1;strokeColor=none;fillColor=none;" vertex="1" parent="1">
          <mxGeometry x="340" y="370" width="170" height="20" as="geometry" />
        </mxCell>
        <mxCell id="UgHOOY4JTyCKd-UOdERp-9" value="" style="endArrow=none;html=1;rounded=0;" edge="1" parent="1">
          <mxGeometry width="50" height="50" relative="1" as="geometry">
            <mxPoint x="200" y="360" as="sourcePoint" />
            <mxPoint x="200" y="150" as="targetPoint" />
          </mxGeometry>
        </mxCell>
        <mxCell id="UgHOOY4JTyCKd-UOdERp-10" value="" style="endArrow=none;dashed=1;html=1;rounded=0;" edge="1" parent="1">
          <mxGeometry width="50" height="50" relative="1" as="geometry">
            <mxPoint x="200" y="320" as="sourcePoint" />
            <mxPoint x="480" y="320" as="targetPoint" />
          </mxGeometry>
        </mxCell>
        <mxCell id="UgHOOY4JTyCKd-UOdERp-11" value="&lt;font style=&quot;font-size: 11px&quot;&gt;Fundamentals&lt;br&gt;of Programming&lt;/font&gt;" style="text;html=1;align=center;verticalAlign=middle;resizable=0;points=[];autosize=1;strokeColor=none;fillColor=none;" vertex="1" parent="1">
          <mxGeometry x="105" y="305" width="90" height="30" as="geometry" />
        </mxCell>
        <mxCell id="UgHOOY4JTyCKd-UOdERp-12" value="" style="endArrow=none;dashed=1;html=1;rounded=0;" edge="1" parent="1">
          <mxGeometry width="50" height="50" relative="1" as="geometry">
            <mxPoint x="280" y="280" as="sourcePoint" />
            <mxPoint x="560" y="280" as="targetPoint" />
          </mxGeometry>
        </mxCell>
        <mxCell id="UgHOOY4JTyCKd-UOdERp-13" value="&lt;font style=&quot;font-size: 11px&quot;&gt;Fundamentals of&lt;br&gt;Programming Lab&lt;/font&gt;" style="text;html=1;align=center;verticalAlign=middle;resizable=0;points=[];autosize=1;strokeColor=none;fillColor=none;" vertex="1" parent="1">
          <mxGeometry x="100" y="265" width="100" height="30" as="geometry" />
        </mxCell>
        <mxCell id="UgHOOY4JTyCKd-UOdERp-15" value="" style="endArrow=none;dashed=1;html=1;rounded=0;" edge="1" parent="1">
          <mxGeometry width="50" height="50" relative="1" as="geometry">
            <mxPoint x="200" y="240" as="sourcePoint" />
            <mxPoint x="320" y="240" as="targetPoint" />
          </mxGeometry>
        </mxCell>
        <mxCell id="UgHOOY4JTyCKd-UOdERp-16" value="" style="endArrow=none;dashed=1;html=1;rounded=0;" edge="1" parent="1">
          <mxGeometry width="50" height="50" relative="1" as="geometry">
            <mxPoint x="400" y="240" as="sourcePoint" />
            <mxPoint x="520" y="240" as="targetPoint" />
          </mxGeometry>
        </mxCell>
        <mxCell id="UgHOOY4JTyCKd-UOdERp-17" value="&lt;span style=&quot;font-size: 11px&quot;&gt;SQL (prof on leave)&lt;/span&gt;" style="text;html=1;align=center;verticalAlign=middle;resizable=0;points=[];autosize=1;strokeColor=none;fillColor=none;" vertex="1" parent="1">
          <mxGeometry x="95" y="230" width="106" height="19" as="geometry" />
        </mxCell>
        <mxCell id="UgHOOY4JTyCKd-UOdERp-19" value="" style="endArrow=none;dashed=1;html=1;rounded=0;fontSize=11;" edge="1" parent="1">
          <mxGeometry width="50" height="50" relative="1" as="geometry">
            <mxPoint x="320" y="279" as="sourcePoint" />
            <mxPoint x="320" y="260" as="targetPoint" />
          </mxGeometry>
        </mxCell>
        <mxCell id="UgHOOY4JTyCKd-UOdERp-20" value="" style="endArrow=none;dashed=1;html=1;rounded=0;fontSize=11;" edge="1" parent="1">
          <mxGeometry width="50" height="50" relative="1" as="geometry">
            <mxPoint x="400" y="280" as="sourcePoint" />
            <mxPoint x="400" y="260" as="targetPoint" />
          </mxGeometry>
        </mxCell>
        <mxCell id="UgHOOY4JTyCKd-UOdERp-21" value="" style="endArrow=none;dashed=1;html=1;rounded=0;fontSize=11;" edge="1" parent="1">
          <mxGeometry width="50" height="50" relative="1" as="geometry">
            <mxPoint x="320" y="260" as="sourcePoint" />
            <mxPoint x="400" y="260" as="targetPoint" />
          </mxGeometry>
        </mxCell>
        <mxCell id="UgHOOY4JTyCKd-UOdERp-22" value="" style="endArrow=none;dashed=1;html=1;rounded=0;fontSize=11;" edge="1" parent="1">
          <mxGeometry width="50" height="50" relative="1" as="geometry">
            <mxPoint x="200" y="318" as="sourcePoint" />
            <mxPoint x="200" y="299" as="targetPoint" />
          </mxGeometry>
        </mxCell>
        <mxCell id="UgHOOY4JTyCKd-UOdERp-23" value="" style="endArrow=none;dashed=1;html=1;rounded=0;fontSize=11;" edge="1" parent="1">
          <mxGeometry width="50" height="50" relative="1" as="geometry">
            <mxPoint x="280" y="319" as="sourcePoint" />
            <mxPoint x="280" y="299" as="targetPoint" />
          </mxGeometry>
        </mxCell>
        <mxCell id="UgHOOY4JTyCKd-UOdERp-24" value="" style="endArrow=none;dashed=1;html=1;rounded=0;fontSize=11;" edge="1" parent="1">
          <mxGeometry width="50" height="50" relative="1" as="geometry">
            <mxPoint x="200" y="299" as="sourcePoint" />
            <mxPoint x="280" y="299" as="targetPoint" />
          </mxGeometry>
        </mxCell>
      </root>
    </mxGraphModel>
  </diagram>
</mxfile>
